<svg width="253px" height="39px" viewBox="0 0 253 39" version="1.1" xmlns="http://www.w3.org/2000/svg" xmlns:xlink="http://www.w3.org/1999/xlink">
    <g id="Symbols" stroke="none" stroke-width="1" fill="none" fill-rule="evenodd">
        <g fill-rule="nonzero">
            <g>
                <path d="M69.4128128,0.415028303 C68.6868233,0.00414488939 67.8239105,-0.107130684 67.0141378,0.105710931 C66.204365,0.318552547 65.5141552,0.838052728 65.0955324,1.54978734 L52.4318727,21.7463673 L47.9134093,14.0747569 C47.5141841,13.2587025 46.7682426,12.6564671 45.8743915,12.4285571 L45.8743915,12.4285571 L45.6025225,12.3699545 L45.5590234,12.3699545 L45.3306534,12.3699545 L44.7869154,12.3699545 L44.5639828,12.3699545 L44.5204837,12.3699545 L44.2486147,12.4285571 L44.2486147,12.4285571 C43.3544171,12.6558015 42.6082216,13.258242 42.2095969,14.0747569 L37.6802587,21.7570223 L29.8395557,8.4382542 C26.5945284,2.26259107 19.5475953,-1.03828754 12.6044865,0.36511508 C5.66137774,1.7685177 0.523047462,7.53238964 0.0373915064,14.4621315 C-0.448264449,21.3918734 3.83773211,27.7898057 10.5198874,30.109904 C17.2020426,32.4300023 24.643332,30.1038785 28.7194553,24.4207759 L28.7194553,24.4207759 C29.5689482,22.9988958 29.1327706,21.1742138 27.7271994,20.2698257 C26.3216283,19.3654376 24.4393376,19.6983452 23.445196,21.0271538 L23.445196,21.0271538 C20.9653474,24.3287797 16.5701604,25.6478929 12.6284454,24.2735502 C8.68673032,22.8992074 6.13007775,19.1562228 6.33640969,15.0618986 C6.54274164,10.9675743 9.4632933,7.48956892 13.5240172,6.50237257 C17.5847412,5.51517621 21.8259201,7.25210431 23.9617471,10.7770299 L34.9452562,29.4499427 C35.4404791,30.287863 36.3079446,30.849886 37.2887673,30.9682823 L37.3431411,30.9682823 L37.555199,30.9682823 L37.8325054,30.9682823 L38.0445633,30.9682823 L38.0989371,30.9682823 C39.0797598,30.849886 39.9472253,30.287863 40.4424482,29.4499427 L45.0750966,21.5918696 L49.7077449,29.4499427 C50.0919652,30.1031887 50.7070653,30.5959384 51.436832,30.8350946 L51.4857684,30.8350946 L51.7141384,30.8990247 L51.8120113,30.8990247 L52.0023196,30.9309897 L52.1273794,30.9309897 L52.2959382,30.9309897 L52.5949941,30.9309897 L52.7635529,30.9309897 L52.8886127,30.9309897 L53.078921,30.8990247 L53.1767939,30.8990247 L53.4051638,30.8350946 L53.4541003,30.8350946 C54.184115,30.5963791 54.7993587,30.1035144 55.1831874,29.4499427 L70.5764122,4.61843151 C70.9957696,3.90711221 71.1093401,3.0616363 70.8921089,2.26822671 C70.6748777,1.47481712 70.1446634,0.798554351 69.4182501,0.388390767" id="Shape" fill="#F33784"></path>
                <path d="M75.01592,15.8331188 C74.9803759,13.4567 75.1458205,11.0814427 75.5106095,8.73095535 C75.7416766,7.12988465 76.2628256,5.58045383 77.0502608,4.15341 C77.6339589,3.09855252 78.5428999,2.24449556 79.6515491,1.70919375 C81.9604923,0.778684055 84.5567061,0.763277013 86.8773498,1.66631276 C87.9191229,2.16851792 88.7580185,2.99070245 89.261864,4.00332655 C89.9621451,5.4255536 90.409344,6.95124956 90.5847414,8.51655042 C90.88797,10.8866313 91.0253857,13.2737107 90.9960562,15.6615949 C91.0277879,18.1139165 90.867998,20.5650614 90.5180417,22.9942436 C90.3038239,24.6393044 89.7980702,26.2366355 89.0228568,27.7165123 C88.4564284,28.7904177 87.564694,29.6727899 86.466035,30.2464905 C85.3237677,30.7724194 84.0684394,31.0295964 82.8031099,30.9969078 C81.5651762,31.0286861 80.333641,30.8152421 79.1846512,30.3697734 C78.1230286,29.8893892 77.2666927,29.0692686 76.7612288,28.0488399 C76.0390167,26.5896818 75.5839399,25.0210623 75.4161182,23.4123332 C75.1091615,20.8971671 74.971768,18.3654436 75.0048034,15.8331188 M80.5631116,16.8783429 C80.5631116,18.522114 80.5909032,19.9282531 80.6464863,21.0967599 C80.6792346,22.0654903 80.7944943,23.029986 80.9911014,23.9805063 C81.0927738,24.5840275 81.3530167,25.1523866 81.7470313,25.6314243 C82.0853231,25.9882821 82.5688318,26.1841934 83.0699087,26.1674366 C83.5689554,26.1770138 84.046207,25.9704982 84.3705528,25.6046237 C84.7890136,25.0720488 85.0640167,24.447729 85.1709492,23.7875419 C85.3859042,22.7267148 85.5159812,21.6515229 85.5600307,20.5714679 C85.630436,19.2635978 85.6674914,17.6895082 85.6711969,15.8491992 C85.6749025,14.0088902 85.6526692,12.4633879 85.6044972,11.2126925 C85.5876396,10.1677421 85.4798,9.12600324 85.2821153,8.09846079 C85.1842398,7.46402508 84.9159726,6.86531486 84.5039522,6.36178082 C84.1446178,5.99862468 83.6399207,5.80316208 83.1199334,5.82576849 C82.6364894,5.82364718 82.1798793,6.03984496 81.885989,6.41002193 C81.4779407,6.97222494 81.2045517,7.6148503 81.0855926,8.29142523 C80.8509165,9.42026102 80.7133437,10.5658632 80.6742778,11.7165441 C80.600167,13.1459103 80.5649644,14.8736567 80.56867,16.8997834" id="Shape" fill="#FFFFFF"></path>
                <path d="M93.0161623,10.6551821 C93.9107111,10.1109362 94.8802243,9.703752 95.8930497,9.44692318 C96.9825021,9.15204342 98.10538,9.00201273 99.2332561,9.00062935 C100.161231,8.99013021 101.086086,9.11104308 101.980845,9.35984146 C102.798042,9.59472917 103.533515,10.0567507 104.103492,10.6932804 C104.753405,11.462456 105.226292,12.3677261 105.488062,13.3438303 C105.858656,14.7323943 106.029216,16.1676696 105.99448,17.6053922 C106.031333,19.9194868 105.883599,22.2328203 105.552711,24.5229467 C105.362139,25.9310655 104.966366,27.3029464 104.378251,28.5940173 C104.017091,29.4132817 103.407771,30.0955436 102.638112,30.5424709 C101.969955,30.8828019 101.231408,31.0581381 100.48314,31.054076 C99.4954117,31.1194884 98.5160541,30.8346062 97.7140009,30.24857 L97.7140009,38.6084156 C97.3281984,38.7536869 96.9267388,38.8523394 96.5179916,38.9023164 C96.1072217,38.9580644 95.6933367,38.9871513 95.2788827,38.9893981 C94.6685782,39.0427538 94.0576868,38.8937211 93.538743,38.5648747 C93.18856,38.2818591 93,37.7321557 93,36.9320924 L93,10.6551821 L93.0161623,10.6551821 Z M97.7140009,26.0958603 C97.9475262,26.539047 98.3923815,26.8276599 98.8884606,26.8578254 C99.1286508,26.8520548 99.3592705,26.7615577 99.5403396,26.6020228 C99.8354407,26.2680343 100.031482,25.8568458 100.10602,25.4155343 C100.317925,24.5212496 100.458449,23.6112274 100.526239,22.6942305 C100.637579,21.5041136 100.69325,19.9058011 100.69325,17.899293 C100.700212,17.0706842 100.664246,16.2422751 100.585501,15.4174639 C100.544513,14.9173279 100.437616,14.4249583 100.267643,13.9534024 C100.167317,13.6670159 99.9784248,13.4208493 99.7288996,13.251306 C99.4922272,13.1178085 99.2240322,13.0519546 98.9531097,13.0608147 C98.4855867,13.0672392 98.0367911,13.2474335 97.6924512,13.5669773 L97.6924512,26.0849751 L97.7140009,26.0958603 Z" id="Shape" fill="#FFFFFF"></path>
                <path d="M115.527266,9.00629697 C117.044938,8.93142918 118.517753,9.52718613 119.546819,10.632215 C120.515606,11.7161604 121,13.4757651 121,15.9110291 C121,16.9227115 120.957958,17.9723319 120.873875,19.0598905 C120.807929,20.0227147 120.650027,20.9772205 120.402277,21.9106668 C119.830249,22.0342614 119.251752,22.1265373 118.669427,22.1870729 C118.029662,22.2557228 117.373446,22.3189529 116.700778,22.3767633 C116.028111,22.4345738 115.373723,22.476125 114.737614,22.5014171 C114.096021,22.5285157 113.520232,22.5447749 113.004764,22.5447749 C112.978465,23.5629392 113.206356,24.5718281 113.668292,25.4822669 C114.052151,26.0892763 114.75772,26.392781 115.785,26.392781 C116.55824,26.3925065 117.327739,26.2867265 118.071704,26.0784368 C118.844982,25.8589738 119.595849,25.5686629 120.314537,25.2112805 C120.473866,25.7132213 120.575048,26.2314106 120.616141,26.7559027 C120.670978,27.3629121 120.698396,27.9048848 120.698396,28.3818208 C120.701143,28.8023533 120.533258,29.2064338 120.232282,29.5037043 C119.859457,29.8644173 119.415084,30.1449074 118.927161,30.3275028 C118.302026,30.5692715 117.650579,30.7384177 116.985931,30.8315374 C116.207256,30.9468612 115.420784,31.0030295 114.633423,30.9995489 C113.725437,31.0091247 112.822402,30.8661782 111.962861,30.5768102 C111.125899,30.2771145 110.397152,29.7397589 109.868087,29.032188 C109.206038,28.1143951 108.74133,27.072239 108.502646,25.9700423 C108.139762,24.3477173 107.97408,22.6883862 108.009112,21.0272513 C107.952625,18.9361773 108.158927,16.8462572 108.623287,14.8054048 C108.918011,13.4976502 109.477626,12.2624227 110.268397,11.1741877 C110.873559,10.373287 111.708545,9.77087668 112.664775,9.44529485 C113.588898,9.14741603 114.555243,8.99738567 115.527266,9.00087724 M114.885673,13.0981908 C114.231285,13.0981908 113.761515,13.5624808 113.476362,14.4910606 C113.127183,15.910196 112.955902,17.3663846 112.966378,18.8268422 C113.562274,18.8268422 114.159997,18.797937 114.759548,18.7401266 C115.227455,18.7142838 115.688288,18.6155101 116.12499,18.4474613 C116.224853,18.110704 116.281956,17.7629799 116.294985,17.4122935 C116.320575,16.9751022 116.333371,16.5866884 116.333371,16.2470522 C116.340972,15.703902 116.313498,15.1608259 116.251115,14.6211341 C116.215744,14.2936397 116.128782,13.9736245 115.993381,13.6726819 C115.90637,13.4732559 115.745498,13.31426 115.543718,13.2282643 C115.330584,13.1548718 115.105825,13.1199909 114.88019,13.1252894" id="Shape" fill="#FFFFFF"></path>
                <path d="M123.061125,10.349611 C123.487278,10.1590545 123.929717,10.0033895 124.383643,9.88430445 C124.939322,9.73096479 125.495002,9.58820028 126.117363,9.45072335 C126.739725,9.31324641 127.367643,9.20220735 128.001118,9.12289373 C128.590252,9.0439729 129.184353,9.00334073 129.779293,9.00127952 C130.723171,8.98847629 131.665781,9.07178895 132.591033,9.24979552 C133.299199,9.38279352 133.961685,9.68072946 134.519242,10.1169577 C135.038725,10.5618713 135.422634,11.1317522 135.630601,11.7666809 C135.896262,12.5937005 136.0201,13.456059 135.99735,14.3205794 L135.99735,29.183951 C136.006994,29.3538619 135.976618,29.5236764 135.908441,29.680983 C135.758052,29.8340381 135.544988,29.9170655 135.324977,29.9083487 C134.991569,29.9506493 134.485901,29.9770872 133.807971,29.9929499 C133.130042,30.0088126 132.185387,29.9929499 130.974005,29.9929499 L130.974005,15.716499 C131.019009,14.9727505 130.930692,14.2271373 130.712835,13.5115805 C130.504209,13.0873017 130.027113,12.8441748 129.540351,12.9140846 C128.942383,12.8950584 128.355117,13.0682905 127.873312,13.405829 L127.873312,29.183951 C127.883336,29.3538825 127.852945,29.5237767 127.784403,29.680983 C127.645402,29.8335642 127.440725,29.9173111 127.228723,29.9083487 C126.74724,29.9614309 126.26309,29.9896726 125.778399,29.9929499 L123,29.9929499 L123,10.349611 L123.061125,10.349611 Z" id="Shape" fill="#FFFFFF"></path>
                <path d="M137.063736,2.24986558 C136.965706,1.92958131 136.981133,1.58542701 137.107429,1.27513873 C137.396106,1.04936799 137.767318,0.956345931 138.128755,1.01920487 L142.126672,1.01920487 L144.213016,14.8559697 C144.52615,16.9796762 144.781027,18.9962899 144.977645,20.9058106 C145.174264,22.8153314 145.316267,24.4779939 145.403653,25.8937983 L145.742274,25.8937983 C145.800532,23.9407143 145.920688,22.0384541 146.102742,20.1870176 C146.284797,18.3355812 146.519647,16.5603803 146.807293,14.8614151 L148.636941,3.5676527 C148.66205,3.22718742 148.756846,2.89545954 148.915484,2.59292586 C149.140777,2.3579546 149.467318,2.24807447 149.789346,2.29887419 L153.153713,2.29887419 L155.338367,14.8614151 C155.702476,16.9851216 155.971917,19.0017353 156.146689,20.911256 C156.321462,22.8207768 156.463464,24.4834393 156.572697,25.8992437 L156.911318,25.8992437 C156.940447,25.1368875 156.989602,24.2946654 157.058782,23.3725774 C157.127963,22.4504895 157.206247,21.5102502 157.293633,20.5518595 C157.377378,19.5898386 157.470226,18.6278177 157.572176,17.6657968 C157.674127,16.7037759 157.794283,15.7707971 157.932644,14.8668605 L159.718599,2.30431959 C159.739964,1.96029007 159.842915,1.62622761 160.018989,1.32959275 C160.237956,1.09864497 160.555179,0.987135837 160.871004,1.03009567 L165,1.03009567 L159.931603,30.7456509 C159.447338,30.8037351 159.043177,30.8454832 158.71912,30.8708951 L157.807026,30.9525761 C157.523021,30.9816183 157.224452,30.9961393 156.911318,30.9961393 L155.78076,30.9961393 C155.134713,31.0352002 154.506473,30.7762193 154.07673,30.2936826 C153.630433,29.718817 153.337328,29.0406826 153.224715,28.3224473 L152.285313,23.7374193 C152.143311,22.9750631 152.001308,22.1401016 151.859306,21.2325347 C151.717303,20.3249678 151.589865,19.391989 151.476991,18.4335984 C151.364117,17.4715775 151.258526,16.5095566 151.160216,15.5475357 C151.061907,14.5855148 150.969059,13.6779479 150.881673,12.824835 L150.60313,15.5475357 C150.50482,16.5095566 150.399229,17.4715775 150.286355,18.4335984 C150.173481,19.3956193 150.053325,20.3285981 149.925887,21.2325347 C149.798449,22.1401016 149.678293,22.9750631 149.565419,23.7374193 L148.413014,30.7402055 C147.987006,30.7946595 147.610154,30.8327773 147.282455,30.8436681 C146.954757,30.8545589 146.621598,30.8763405 146.282976,30.9090129 C145.944355,30.9416853 145.578425,30.9525761 145.190649,30.9525761 L143.847087,30.9525761 C143.240523,30.9740484 142.664538,30.6869119 142.317829,30.1902199 C141.928632,29.6310829 141.667585,28.9934192 141.5532,28.3224473 C141.382069,27.4729647 141.18363,26.4401535 140.957882,25.2240139 C140.732134,24.0078743 140.497284,22.7136839 140.253331,21.3414427 C140.013019,19.9692016 139.765425,18.5406913 139.510549,17.0559119 C139.255672,15.5711324 139.01354,14.1190254 138.784151,12.6995908 C138.24527,9.38878675 137.67726,5.90736015 137.080121,2.25531098" id="Shape" fill="#FFFFFF"></path>
                <path d="M171.53079,9.00617754 C173.047353,8.93207037 174.518905,9.52770345 175.547755,10.6321045 C176.515918,11.7160557 177,13.47567 177,15.9109472 C177,16.922635 176.956159,17.9722612 176.868476,19.0598256 C176.802637,20.0226625 176.644836,20.9771795 176.397181,21.9106175 C175.825522,22.0342127 175.247397,22.1264891 174.665448,22.187025 C174.026094,22.2556753 173.370301,22.3189058 172.698066,22.3767165 C172.025832,22.4345273 171.371865,22.4760787 170.736165,22.5013709 C170.094986,22.5284697 169.519568,22.544729 169.004432,22.544729 C168.978376,23.5628771 169.206107,24.5717179 169.667532,25.4822369 C170.051144,26.0892496 170.756259,26.392756 171.782878,26.392756 C172.555619,26.3924815 173.324623,26.2867009 174.068109,26.0784101 C174.84089,25.8589459 175.591273,25.5686334 176.309499,25.2112491 C176.468725,25.7131926 176.569842,26.2313847 176.610908,26.7558797 C176.66571,27.3628924 176.69311,27.904868 176.69311,28.3818066 C176.694406,28.8031261 176.524608,29.2073203 176.221816,29.5036962 C175.84933,29.8645347 175.405216,30.1450438 174.917535,30.3274991 C174.292849,30.5694093 173.641805,30.7385608 172.977555,30.8315365 C172.199384,30.9468821 171.413417,31.0030508 170.626562,30.9995489 C169.71916,31.0091247 168.816707,30.8661774 167.957719,30.5768079 C167.121296,30.2771106 166.393019,29.7397521 165.864294,29.0321774 C165.202535,28.1144557 164.738114,27.0722651 164.499732,25.970015 C164.137237,24.3476568 163.971663,22.6883351 164.006517,21.0271972 C163.95871,18.9349731 164.174089,16.8449862 164.647696,14.8053169 C164.94223,13.4975551 165.501485,12.2623209 166.291747,11.1740801 C166.896278,10.3729339 167.73081,9.77046071 168.686582,9.4451778 C169.61011,9.14729737 170.575833,8.99726619 171.547231,9.00075778 M170.906051,13.0980936 C170.252084,13.0980936 169.782616,13.5623861 169.497647,14.490971 C169.148637,15.9101044 168.977467,17.3663076 168.987991,18.8267761 C169.587156,18.8267761 170.184495,18.7978707 170.780007,18.74006 C171.247612,18.7142171 171.708148,18.6154428 172.144569,18.4473931 C172.244647,18.1106966 172.301719,17.7629358 172.314454,17.4122197 C172.340029,16.975026 172.354642,16.5866101 172.358296,16.2469721 C172.366057,15.703816 172.3386,15.1607265 172.276093,14.6210451 C172.240923,14.2935162 172.15401,13.9734723 172.018525,13.6725878 C171.93157,13.4731607 171.770801,13.314164 171.569151,13.2281678 C171.356155,13.1547749 171.131541,13.1198938 170.906051,13.1251924" id="Shape" fill="#FFFFFF"></path>
                <path d="M179.003255,2.08187439 C178.984311,1.67129676 179.048195,1.26110125 179.191141,0.875454872 C179.328374,0.587973995 179.578985,0.369674095 179.883634,0.272245113 C180.343857,0.126443934 180.823226,0.0490945817 181.306198,0.0427051157 C181.918168,0.0177937982 182.712657,0.00355875964 183.689663,0 L183.689663,10.5695161 C184.149211,10.1729897 184.681463,9.86847507 185.257167,9.67270871 C185.897121,9.45957703 186.568546,9.35491526 187.243387,9.36309662 C187.983687,9.34037544 188.719057,9.49028317 189.390653,9.80082406 C190.010664,10.1255724 190.520472,10.6251009 190.856162,11.2367836 C191.296489,12.052903 191.587321,12.9404016 191.715068,13.8578101 C191.913285,15.1668492 192.004841,16.4896713 191.988845,17.8133714 C192.05802,20.1868313 191.80523,22.5587365 191.237302,24.8650536 C190.880571,26.307104 190.22611,27.6596063 189.315499,28.8366294 C188.645866,29.6771547 187.733577,30.2937438 186.701203,30.6035536 C185.796329,30.8587302 184.861024,30.9915977 183.920494,30.9985759 C182.933239,31.0140862 181.948098,30.9028461 180.989476,30.6676112 C180.276103,30.5046937 179.606136,30.1916071 179.024728,29.7494512 L179.024728,2.08187439 L179.003255,2.08187439 Z M183.678926,26.5892727 C183.926181,26.8203345 184.258163,26.9400292 184.596882,26.9202373 C184.843928,26.8985475 185.074695,26.7885506 185.24643,26.6106252 C185.563905,26.2676332 185.794016,25.8539204 185.917451,25.4042057 C186.179693,24.5840455 186.359511,23.7400498 186.454267,22.8846039 C186.611541,21.4666756 186.681458,20.0405093 186.663626,18.6140923 C186.729892,17.2709202 186.596029,15.9253872 186.266382,14.621164 C186.001552,13.8738245 185.604308,13.4983753 185.074649,13.4948166 C184.553657,13.490755 184.054228,13.7013902 183.695031,14.0766738 L183.695031,26.5572438 L183.678926,26.5892727 Z" id="Shape" fill="#FFFFFF"></path>
                <path d="M198.780294,29.1863607 C198.789956,29.3572669 198.760664,29.5281356 198.694601,29.6862437 C198.560152,29.839055 198.363205,29.923142 198.159015,29.9149135 C197.687783,29.9684165 197.214004,29.9968194 196.739712,30 L194.002868,30 L194.002868,11.3182046 C193.984345,10.9211257 194.055721,10.5249752 194.211747,10.1589016 C194.364671,9.87060294 194.626688,9.65444068 194.940144,9.55797854 C195.40703,9.41428475 195.892135,9.33728968 196.38087,9.32930868 C196.991437,9.30094653 197.78589,9.28676546 198.764227,9.28676546 L198.764227,29.1863607 L198.780294,29.1863607 Z M194.227814,3.24030906 C194.188969,2.41776722 194.399813,1.60259897 194.833026,0.900431469 C195.276417,0.285194722 196.012398,-0.0539450013 196.771847,0.00702366357 C197.635926,0.00702366357 198.219714,0.22860298 198.523213,0.671761614 C198.894617,1.4029704 199.054083,2.22226825 198.983817,3.03822872 C199.038903,3.96038863 198.813082,4.87765357 198.335758,5.670591 C197.92235,6.26300571 197.234943,6.60727573 196.50941,6.58527042 C195.879413,6.61309089 195.271385,6.35239386 194.859806,5.87798924 C194.456331,5.40646846 194.254594,4.52015119 194.254594,3.21903744 L194.227814,3.24030906 Z" id="Shape" fill="#FFFFFF"></path>
                <path d="M202.055568,10.3546097 C202.481542,10.1622943 202.923985,10.0048989 203.378086,9.88413533 C203.933766,9.73083468 204.489445,9.58810649 205.111807,9.45066453 C205.734168,9.31322256 206.362086,9.20221175 206.995561,9.12291831 C207.584697,9.04403384 208.178797,9.00341209 208.773736,9.00133503 C209.719466,8.98823849 210.66395,9.07153102 211.591033,9.24978781 C212.299199,9.38275198 212.961685,9.68061213 213.519242,10.1167294 C214.038725,10.5615298 214.422634,11.1312657 214.630601,11.766033 C214.896262,12.5928422 215.0201,13.4549813 214.99735,14.3192817 L214.99735,29.1841586 C215.006807,29.354016 214.976437,29.5237483 214.908441,29.6810642 C214.757625,29.8334894 214.544857,29.91638 214.324977,29.908372 C213.991569,29.9506619 213.485901,29.977093 212.807971,29.9929517 C212.130042,30.0088104 211.185387,29.9929517 209.968448,29.9929517 L209.968448,15.7201325 C210.013778,14.9765648 209.925455,14.2310889 209.707278,13.5157749 C209.499269,13.0937015 209.02522,12.8510388 208.540351,12.918431 C207.942324,12.8989942 207.354918,13.0722235 206.873312,13.4100503 L206.873312,29.1841586 C206.882956,29.3540263 206.852579,29.5237976 206.784403,29.6810642 C206.645402,29.8336065 206.440725,29.9173321 206.228723,29.908372 C205.74724,29.9614407 205.26309,29.9896752 204.778399,29.9929517 L202,29.9929517 L202,10.3546097 L202.055568,10.3546097 Z" id="Shape" fill="#FFFFFF"></path>
                <path d="M216.106711,11.7114348 C216.110709,11.4304475 216.158839,11.1519683 216.24924,10.8867553 C216.321282,10.6258707 216.473041,10.3957119 216.682108,10.230267 C217.326704,9.86598612 218.020606,9.60265833 218.740866,9.44899164 C220.075193,9.12217899 221.444801,8.97266084 222.816152,9.00409874 C224.709506,9.00409874 226.046819,9.38569387 226.828091,10.1488841 C227.609364,10.9120744 228,12.2521787 228,14.1691969 L228,19.8768474 L228,23.5553522 C228,24.7381162 227.966567,25.852157 227.899702,26.8974745 C227.871548,27.939175 227.829317,28.8560884 227.773009,29.6482148 C226.967945,30.1066467 226.10178,30.4411678 225.2022,30.6410856 C224.101733,30.891126 222.977095,31.0112649 221.850119,30.9991701 C221.111408,31.0023663 220.374155,30.931499 219.648831,30.7875747 C218.968518,30.6581205 218.33112,30.3538976 217.795949,29.9032144 C217.202675,29.3662182 216.755211,28.6801149 216.497347,27.9120473 C216.130506,26.7815969 215.96422,25.5926123 216.006412,24.4017338 C215.976482,23.2114668 216.107956,22.0227139 216.397049,20.8697181 C216.591969,20.0861276 216.952433,19.3562842 217.452822,18.732062 C217.855894,18.2479615 218.382413,17.889076 218.973136,17.695787 C219.545799,17.5130433 220.141926,17.4197683 220.741557,17.4190853 C221.162688,17.4301414 221.582529,17.4718415 221.997927,17.5438724 C222.486777,17.6132212 222.956097,17.7869441 223.375712,18.0538716 L223.375712,15.13494 C223.417899,14.6946457 223.275861,14.2566937 222.985076,13.9304739 C222.593494,13.6516816 222.118344,13.5247874 221.644243,13.5723893 C220.795714,13.5805422 219.949553,13.6658751 219.115666,13.8273889 C218.297362,13.9691586 217.492129,14.1815043 216.708502,14.4621751 C216.465846,13.9994637 216.298242,13.4991739 216.212288,12.9810073 C216.139055,12.561805 216.098455,12.1372694 216.090874,11.7114348 L216.106711,11.7114348 Z M223.375712,21.2278027 C223.231273,21.0824684 223.047098,20.98593 222.847825,20.951101 C222.665586,20.9107898 222.479933,20.888983 222.293544,20.8859947 C221.843857,20.8840315 221.433107,21.1478822 221.23777,21.5641851 C220.989664,22.0145035 220.86825,22.9151404 220.86825,24.2769468 C220.828845,25.0107662 220.918251,25.7458848 221.132193,26.4471561 C221.301941,26.8837927 221.732876,27.1517513 222.187967,27.1036444 C222.391232,27.1011565 222.592731,27.0645021 222.784479,26.9951339 C222.982509,26.9354123 223.163595,26.8274643 223.312365,26.6804536 C223.337,26.4561986 223.358116,26.1252417 223.375712,25.6875828 L223.375712,24.2715212 L223.375712,21.2278027 L223.375712,21.2278027 Z" id="Shape" fill="#FFFFFF"></path>
                <path d="M231.005615,10.8567734 C231.84293,10.3236023 232.746027,9.88843869 233.694978,9.56088464 C234.772391,9.18269709 235.913958,8.99270149 237.063701,9.0002144 C238.257726,9.0002144 239.045633,9.16594711 239.427421,9.49741254 C239.847157,9.92618802 240.051582,10.5039397 239.988875,11.0842151 C239.979958,11.4697717 239.949974,11.8546401 239.899042,12.2372917 C239.83317,12.7597664 239.701228,13.2729482 239.506025,13.7659115 C239.227828,13.6403407 238.933366,13.5496501 238.630157,13.496155 C238.383524,13.4556709 238.133765,13.4344414 237.883423,13.4326829 C237.56927,13.4415346 237.258547,13.4968668 236.962639,13.5966525 C236.613712,13.70715 236.288567,13.8755323 236.002553,14.0938507 L235.957637,29.2213686 C235.967192,29.391326 235.936507,29.5611583 235.867804,29.7185667 C235.726862,29.8705573 235.520403,29.9541927 235.30635,29.9460084 C234.834171,29.9871148 234.360022,30.0047704 233.885872,29.9989018 L231,29.9989018 L231,10.8567734 L231.005615,10.8567734 Z" id="Shape" fill="#FFFFFF"></path>
                <path d="M247.871738,9.00374363 C248.804561,8.97957312 249.736752,9.07251686 250.647096,9.28045978 C251.197824,9.40656691 251.720265,9.63664097 252.187178,9.95868563 C252.492651,10.1714573 252.726061,10.4745958 252.855617,10.8268147 C252.946371,11.0997409 252.995072,11.3852425 253,11.6732406 C252.991353,12.0801733 252.906041,12.4816682 252.748667,12.8560665 C252.590445,13.2548376 252.364168,13.622181 252.080228,13.9412278 C251.535915,13.6359715 250.952969,13.4077767 250.347635,13.263002 C249.739014,13.1213141 249.116484,13.0503224 248.492049,13.0513955 C247.183691,13.0513955 246.529513,13.4746084 246.529513,14.3210343 C246.540714,14.5983888 246.604249,14.8709881 246.716676,15.1240537 C246.978949,15.6173103 247.324673,16.0599244 247.73805,16.4316732 L250.823563,19.6057701 C251.198836,20.0278817 251.540374,20.4796524 251.844938,20.956796 C252.091842,21.3477728 252.308187,21.7577706 252.491987,22.1830284 C252.658824,22.5814567 252.770402,23.0014351 252.823532,23.430964 C252.8825,23.9151473 252.911078,24.4026441 252.909092,24.890506 C252.996789,26.6025092 252.29529,28.2586277 251.010726,29.3722224 C249.745149,30.4573838 248.042858,30.9999645 245.903854,30.9999645 C245.26885,31.0014243 244.63452,30.9579121 244.005488,30.8697451 C243.477232,30.803738 242.95959,30.6687852 242.465405,30.4682354 C242.061228,30.3064719 241.702932,30.0454674 241.422641,29.7086224 C241.151891,29.3686689 241.011354,28.9408842 241.026925,28.5040933 C241.035488,28.0973811 241.091127,27.6930989 241.192698,27.2995642 C241.321567,26.7887178 241.51762,26.2977962 241.775576,25.8400222 C242.348868,26.1487777 242.957822,26.3838964 243.588382,26.5399513 C244.181192,26.6914783 244.789866,26.7698153 245.401188,26.773261 C245.977315,26.8198339 246.549721,26.645598 247.005441,26.2849383 C247.362066,25.9551454 247.55764,25.4828642 247.540192,24.9935963 C247.533652,24.6363521 247.485183,24.281171 247.395809,23.935564 C247.243211,23.4430995 246.979551,22.9935171 246.625768,22.6225187 L243.000156,18.7322153 C242.345719,18.0481522 241.823352,17.2457671 241.460073,16.3665635 C241.1781,15.6964675 241.022123,14.9787759 241.000187,14.2504988 C240.994599,13.5437463 241.114141,12.8417189 241.353123,12.1778406 C241.587032,11.5304393 241.98111,10.954957 242.49749,10.5066921 C243.116343,9.99799193 243.834426,9.62814573 244.604409,9.42153076 C245.670658,9.12903109 246.772856,8.99380746 247.877085,9.02002105" id="Shape" fill="#FFFFFF"></path>
            </g>
        </g>
    </g>
</svg>